<?xml version="1.0" encoding="UTF-8" standalone="no"?>
<!DOCTYPE svg PUBLIC "-//W3C//DTD SVG 1.1//EN" "http://www.w3.org/Graphics/SVG/1.1/DTD/svg11.dtd">
<svg xmlns="http://www.w3.org/2000/svg" version="1.1" viewBox="0.00 0.00 512.00 512.00">
<path fill="#000000" d="
  M 252.32 0.00
  L 258.56 0.00
  Q 264.55 0.39 270.57 0.66
  C 321.90 3.00 371.02 21.90 411.63 52.93
  A 0.40 0.40 0.0 0 1 411.71 53.49
  L 353.01 129.74
  A 0.76 0.76 0.0 0 1 351.96 129.89
  C 269.54 68.70 152.57 98.20 111.03 192.36
  C 88.13 244.27 95.15 304.44 128.60 349.87
  C 178.91 418.20 273.08 434.18 343.49 387.91
  C 373.33 368.30 395.16 339.07 406.58 305.20
  A 0.35 0.34 9.1 0 0 406.25 304.75
  L 256.50 304.75
  A 0.50 0.50 0.0 0 1 256.00 304.25
  L 256.00 207.77
  A 0.52 0.52 0.0 0 1 256.52 207.25
  L 512.00 207.26
  L 512.00 259.55
  C 508.94 398.56 398.54 509.70 258.93 512.00
  L 252.70 512.00
  C 113.40 509.27 3.26 398.91 0.00 259.92
  L 0.00 252.18
  Q 2.54 160.43 60.26 91.37
  C 107.91 34.35 178.12 1.44 252.32 0.00
  Z"
/>
</svg>
