<?xml version="1.0" encoding="UTF-8"?>
<!-- Generated by Pixelmator Pro 3.3.8 -->
<svg width="512" height="512" viewBox="0 0 512 512" xmlns="http://www.w3.org/2000/svg">
    <path id="Trazado" fill="#ffffff" stroke="none" d="M 252.320007 0 L 258.559998 0 C 262.553324 0.26001 266.556661 0.480011 270.570007 0.660004 C 321.899994 3 371.019989 21.899994 411.630005 52.929993 C 411.806732 53.062561 411.84256 53.313263 411.709991 53.48999 L 353.01001 129.73999 C 352.758514 130.066345 352.292816 130.132874 351.959991 129.890015 C 269.540009 68.700012 152.570007 98.200012 111.029999 192.359985 C 88.129997 244.27002 95.150002 304.440002 128.600006 349.869995 C 178.910004 418.200012 273.079987 434.179993 343.48999 387.910004 C 373.329987 368.299988 395.160004 339.070007 406.579987 305.200012 C 406.615143 305.096954 406.597321 304.983276 406.532043 304.894287 C 406.466766 304.805267 406.361908 304.751617 406.25 304.75 L 256.5 304.75 C 256.223846 304.75 256 304.526154 256 304.25 L 256 207.77002 C 256 207.482819 256.232819 207.25 256.519989 207.25 L 512 207.26001 L 512 259.549988 C 508.940002 398.559998 398.540009 509.700012 258.929993 512 L 252.699997 512 C 113.400002 509.269989 3.26 398.910004 0 259.920013 L 0 252.179993 C 1.693333 191.013326 21.779999 137.409993 60.259998 91.369995 C 107.910004 34.350006 178.119995 1.440002 252.320007 0 Z"/>
</svg>
